# AST/ASF file generated using VICON BodyLanguage
# -----------------------------------------------
:version 1.10
:name VICON
:units
  mass 1.0
  length 0.45
  angle deg
:documentation
   .ast/.asf automatically generated from VICON data using
   VICON BodyBuilder and BodyLanguage model FoxedUp or BRILLIANT.MOD
:root
   order TX TY TZ RX RY RZ
   axis XYZ
   position 0 0 0  
   orientation 0 -0 0 
:bonedata
  begin
     id 1 
     name lhipjoint
     direction 0.432694 -0.693742 0.575759 
     length 2.19277 
     axis 0 -0 0  XYZ
  end
  begin
     id 2 
     name lfemur
     direction 0.34202 -0.939693 0  
     length 6.69022  
     axis 0 -0 20  XYZ
    dof rx ry rz
    limits (-160.0 20.0)
           (-70.0 70.0)
           (-60.0 70.0)
  end
  begin
     id 3 
     name ltibia
     direction 0.34202 -0.939693 0   
     length 6.50337   
     axis 0 -0 20   XYZ
    dof rx
    limits (-10.0 170.0)
  end
  begin
     id 4 
     name lfoot
     direction 0.158999 -0.435969 0.885805   
     length 2.70564   
     axis -90 -1.13533e-015 20   XYZ
    dof rx rz
    limits (-45.0 90.0)
           (-70.0 20.0)
  end
  begin
     id 5 
     name ltoes
     direction -0.00592919 0.00964381 0.999936   
     length 1.29929   
     axis -90 -1.13533e-015 20   XYZ
    dof rx
    limits (-90.0 20.0)
  end
  begin
     id 6 
     name rhipjoint
     direction -0.414359 -0.700339 0.581234   
     length 2.17212  
     axis 0 -0 0  XYZ 
  end
  begin
     id 7 
     name rfemur
     direction -0.34202 -0.939693 0   
     length 7.17659   
     axis 0 -0 -20   XYZ
    dof rx ry rz
    limits (-160.0 20.0)
           (-70.0 70.0)
           (-70.0 60.0)
  end
  begin
     id 8 
     name rtibia
     direction -0.34202 -0.939693 0   
     length 6.36669   
     axis 0 -0 -20   XYZ
    dof rx
    limits (-10.0 170.0)
 end
 begin
     id 9 
     name rfoot
     direction -0.137064 -0.37658 0.916188   
     length 2.22351  
     axis -90 1.13533e-015 -20   XYZ
    dof rx rz
    limits (-45.0 90.0)
           (-20.0 70.0)
  end
  begin
     id 10 
     name rtoes
     direction -0.000784077 -0.00289101 0.999996   
     length 1.09522   
     axis -90 1.13533e-015 -20   XYZ
    dof rx
    limits (-90.0 20.0)
  end
  begin
     id 11 
     name lowerback
     direction -0.0176242 0.984912 -0.172157   
     length 1.65301   
     axis 0 -0 0   XYZ
    dof rx ry rz
    limits (-20.0 45.0)
           (-30.0 30.0)
           (-30.0 30.0)
  end
  begin
     id 12 
     name upperback
     direction -0.00218128 0.998776 -0.0494072   
     length 1.67776   
     axis 0 -0 0   XYZ
    dof rx ry rz
    limits (-20.0 45.0)
           (-30.0 30.0)
           (-30.0 30.0)
  end
  begin
     id 13 
     name thorax
     direction 0.00544186 0.999658 0.0255711   
     length 1.72293   
     axis 0 -0 0   XYZ
    dof rx ry rz
    limits (-20.0 45.0)
           (-30.0 30.0)
           (-30.0 30.0)
  end
  begin
     id 14 
     name lowerneck
     direction -0.105325 0.983841 0.144785   
     length 2.14226   
     axis 0 -0 0   XYZ
    dof rx ry rz
    limits (-20.0 45.0)
           (-30.0 30.0)
           (-30.0 30.0)
  end
  begin
     id 15 
     name upperneck
     direction 0.0547957 0.988053 -0.144041   
     length 2.17508   
     axis 0 -0 0   XYZ
    dof rx ry rz
    limits (-20.0 45.0)
           (-30.0 30.0)
           (-30.0 30.0)
  end
  begin
     id 16
     name head
     direction 0.0247488 0.997534 -0.0656813  
     length 2.20048  
     axis 0 -0 0   XYZ
    dof rx ry rz
    limits (-20.0 45.0)
           (-30.0 30.0)
           (-30.0 30.0)
  end
  begin
     id 17 
     name lclavicle
     direction 0.820559 0.567247 -0.0701026  
     length 4.09615  
     axis 0 -0 0   XYZ
    dof ry rz
    limits (-20.0 10.0)
           (0.0 20.0)
  end
  begin
     id 18 
     name lhumerus
     direction 0.999977 -0.0067566 -9.96392e-005   
     length 4.59333   
     axis -180 -30 -90   XYZ
    dof rx ry rz
    limits (-60.0 90.0)
           (-90.0 90.0)
           (-90.0 90.0)
  end
  begin
     id 19
     name lradius
     direction 1 -4.48982e-011 -2.53425e-027   
     length 2.81151   
     axis -180 -30 -90   XYZ
    dof rx
    limits (-10.0 170.0)
  end
  begin
     id 20
     name lwrist
     direction 1 -4.48939e-011 -7.39254e-028   
     length 1.40576   
     axis 2.56395e-016 90 90   XYZ
    dof ry
    limits (-180.0 0.0)
 end
  begin
     id 21 
     name lhand
     direction 1 -4.48939e-011 -1.47851e-027   
     length 0.895651   
     axis 9.43423e-016 90 90   XYZ
    dof rx rz
    limits (-90.0 90.0)
           (-45.0 45.0)
  end
  begin
     id 22 
     name lfingers
     direction 1 -4.48978e-011 -2.95702e-027   
     length 0.722097   
     axis 1.88685e-015 90 90   XYZ
    dof rx
    limits (0.0 90.0)
  end
  begin
     id 23
     name lthumb
     direction 0.707107 -6.34931e-011 0.707107   
     length 1.03679   
     axis -90 45 -9.86935e-015   XYZ
    dof rx rz
    limits (-45.0 45.0)
           (-45.0 45.0)
  end
  begin
     id 24 
     name rclavicle
     direction -0.831414 0.553102 -0.0531864   
     length 4.24872  
     axis 0 -0 0   XYZ 
    dof ry rz
    limits (-10.0 20.0)
           (-20.0 0.0)
  end
  begin
     id 25 
     name rhumerus
     direction -0.999916 -0.000939607 0.0129331  
     length 4.74834   
     axis -180 30 90   XYZ
    dof rx ry rz
    limits (-90.0 60.0)
           (-90.0 90.0)
           (-90.0 90.0)
  end
  begin
     id 26 
     name rradius
     direction -1 -4.48956e-011 -1.31752e-027   
     length 2.79907   
     axis -180 30 90   XYZ
    dof rx
    limits (-10.0 170.0)
  end
  begin
     id 27 
     name rwrist
     direction -1 -4.4897e-011 -7.39254e-028   
     length 1.39954   
     axis 2.56395e-016 -90 -90   XYZ
    dof ry
    limits (-180.0 0.0)
  end
  begin
     id 28
     name rhand
     direction -0.999997 -0.00250697 0.000800838   
     length 0.953304   
     axis 9.43423e-016 -90 -90   XYZ
    dof rx rz
    limits (-90.0 90.0)
           (-45.0 45.0)
  end
  begin
     id 29
     name rfingers
     direction -1 -4.48954e-011 -2.95702e-027   
     length 0.763342   
     axis 1.88685e-015 -90 -90   XYZ
    dof rx
    limits (0.0 90.0)
  end
  begin
     id 30
     name rthumb
     direction -0.709701 -0.00217037 0.7045   
     length 1.10115   
     axis -90 -45 9.86935e-015   XYZ
    dof rx rz
    limits (-45.0 45.0)
           (-45.0 45.0)
  end
:hierarchy
  begin
    root lhipjoint rhipjoint lowerback
    lhipjoint lfemur
    lfemur ltibia
    ltibia lfoot
    lfoot ltoes
    rhipjoint rfemur
    rfemur rtibia
    rtibia rfoot
    rfoot rtoes
    lowerback upperback
    upperback thorax
    thorax lowerneck lclavicle rclavicle
    lowerneck upperneck
    upperneck head
    lclavicle lhumerus
    lhumerus lradius
    lradius lwrist
    lwrist lhand lthumb
    lhand lfingers
    rclavicle rhumerus
    rhumerus rradius
    rradius rwrist
    rwrist rhand rthumb
    rhand rfingers
  end

#!OML:ASF G:\ViconDB\ViconDB\414\test\team2\shane.ASF
:FULLY-SPECIFIED
:DEGREES
127
root 2.64024 16.2448 -12.6385 -12.747 6.39513 -6.98068
lowerback 6.53406 1.24756 3.48202
upperback 6.22286 1.78213 2.60313
thorax 2.79882 0.973936 0.668248
lowerneck -12.4867 -8.02677 -8.88878
upperneck 20.1822 -12.0279 12.0932
head 9.74206 -5.09359 4.12592
rclavicle -4.16827e-015 -1.16289e-014
rhumerus -22.0507 8.29865 -90.9262
rradius 38.25
rwrist 31.5345
rhand -32.952 -16.6702
rfingers 7.12502
rthumb -6.1679 -46.5604
lclavicle -4.16827e-015 -1.16289e-014
lhumerus -37.0123 -18.7898 94.4217
lradius 23.7689
lwrist -11.6632
lhand -40.2431 10.4368
lfingers 7.12502
lthumb -13.2022 39.9987
rfemur 7.84435 -17.0114 25.8569
rtibia 37.7333
rfoot -29.2146 -2.28361
rtoes -8.49902
lfemur -15.9419 7.04902 0.374168
ltibia 63.7099
lfoot -23.3407 -7.03062
ltoes -11.0996
128
root 2.63625 16.3098 -12.4966 -12.6611 6.52539 -6.77926
lowerback 6.71373 1.49939 3.46575
upperback 5.96739 2.14091 2.23586
thorax 2.45005 1.15505 0.272567
lowerneck -12.2244 -8.2717 -9.02081
upperneck 20.2193 -12.46 12.4623
head 9.79473 -5.27636 4.22221
rclavicle 1.14177e-014 -1.82882e-014
rhumerus -21.9063 8.62226 -91.3124
rradius 38.4871
rwrist 31.8208
rhand -33.2008 -17.1358
rfingers 7.12502
rthumb -6.4081 -47.0189
lclavicle 1.14177e-014 -1.82882e-014
lhumerus -37.8829 -18.1723 93.9321
lradius 23.536
lwrist -11.8206
lhand -40.142 10.1148
lfingers 7.12502
lthumb -13.1047 39.683
rfemur 9.12278 -16.9823 25.5492
rtibia 35.9431
rfoot -28.3706 -2.05236
rtoes -8.65211
lfemur -16.6228 6.66233 -0.54585
ltibia 61.5662
lfoot -23.4395 -7.34606
ltoes -10.9633
129
root 2.62773 16.3885 -12.3527 -12.4074 6.34949 -6.37406
lowerback 6.78924 1.84194 3.19281
upperback 5.71518 2.59989 1.90619
thorax 2.15635 1.37691 0.0556969
lowerneck -12.1535 -8.46797 -9.2107
upperneck 20.3439 -12.7783 12.7013
head 9.89687 -5.41357 4.29371
rclavicle 1.78037e-014 8.34896e-015
rhumerus -21.5112 8.58202 -91.5517
rradius 38.2497
rwrist 32.7369
rhand -33.5851 -16.828
rfingers 7.12502
rthumb -6.77906 -46.6995
lclavicle 1.78037e-014 8.34896e-015
lhumerus -38.7432 -17.6944 93.6736
lradius 23.4469
lwrist -11.708
lhand -39.9007 10.3514
lfingers 7.12502
lthumb -12.8721 39.9345
rfemur 10.27 -16.6782 25.1135
rtibia 34.0997
rfoot -27.3149 -1.71575
rtoes -9.5169
lfemur -17.1867 6.48781 -1.62432
ltibia 59.297
lfoot -23.5684 -7.45244
ltoes -11.3072
130
root 2.62445 16.4613 -12.2117 -12.2444 6.29312 -6.20407
lowerback 6.94064 2.16659 3.29708
upperback 5.47278 3.05413 1.50613
thorax 1.85881 1.60917 -0.44769
lowerneck -12.0661 -8.74341 -9.24612
upperneck 20.4061 -13.2565 13.0165
head 9.99188 -5.60739 4.34142
rclavicle 2.77056e-014 -3.29983e-014
rhumerus -21.3397 8.64941 -91.9974
rradius 38.4366
rwrist 32.8706
rhand -33.4388 -17.3349
rfingers 7.12502
rthumb -6.6378 -47.2108
lclavicle 2.77056e-014 -3.29983e-014
lhumerus -39.6658 -18.0053 93.458
lradius 23.444
lwrist -11.2974
lhand -39.4655 10.1498
lfingers 7.12502
lthumb -12.4525 39.7588
rfemur 11.4828 -16.5199 24.8977
rtibia 32.1999
rfoot -26.1412 -1.54948
rtoes -10.1949
lfemur -17.6896 6.06262 -2.42696
ltibia 57.0015
lfoot -23.6505 -7.72215
ltoes -11.6399
131
root 2.62286 16.5391 -12.0729 -12.0065 6.1943 -5.99985
lowerback 7.07137 2.45483 3.41642
upperback 5.20469 3.45847 1.09956
thorax 1.55446 1.81482 -0.965773
lowerneck -12.0382 -8.93465 -9.33631
upperneck 20.5641 -13.613 13.33
head 10.1226 -5.74369 4.41548
rclavicle -5.4144e-014 3.97569e-016
rhumerus -21.177 8.81479 -92.4026
rradius 38.3994
rwrist 33.155
rhand -33.668 -17.1378
rfingers 7.12502
rthumb -6.85911 -47.0067
lclavicle -5.4144e-014 3.97569e-016
lhumerus -40.4387 -17.7861 93.0896
lradius 23.2225
lwrist -11.4451
lhand -38.8607 9.75345
lfingers 7.12502
lthumb -11.8693 39.397
rfemur 12.5852 -16.3575 24.6375
rtibia 30.3563
rfoot -24.9406 -1.26644
rtoes -10.9742
lfemur -18.1937 5.56145 -3.27653
ltibia 54.7366
lfoot -23.7169 -8.04796
ltoes -12.0013
132
root 2.62042 16.6132 -11.9326 -11.7666 6.02461 -5.81349
lowerback 7.21574 2.7486 3.41268
upperback 4.96666 3.86139 0.790021
thorax 1.26645 2.01421 -1.31783
lowerneck -12.1415 -9.20755 -9.45661
upperneck 20.6666 -14.0301 13.5005
head 10.2593 -5.91982 4.42652
rclavicle -9.65845e-014 -1.19271e-014
rhumerus -20.9602 8.99471 -92.7499
rradius 38.2967
rwrist 33.3985
rhand -33.7115 -17.2021
rfingers 7.12502
rthumb -6.90109 -47.0696
lclavicle -9.65845e-014 -1.19271e-014
lhumerus -41.3778 -17.9449 92.998
lradius 23.2932
lwrist -11.338
lhand -38.6557 9.69885
lfingers 7.12502
lthumb -11.6716 39.3537
rfemur 13.6538 -15.8692 24.5163
rtibia 28.494
rfoot -23.5969 -1.02061
rtoes -11.4251
lfemur -18.6913 5.23012 -4.03096
ltibia 52.5331
lfoot -23.9577 -8.32994
ltoes -12.3075
133
root 2.62337 16.6734 -11.7944 -11.6018 6.02132 -5.59604
lowerback 7.39497 2.95645 3.45574
upperback 4.77738 4.15168 0.42795
thorax 1.01633 2.15962 -1.74617
lowerneck -12.2908 -9.41133 -9.54137
upperneck 20.8505 -14.3554 13.6334
head 10.4174 -6.04944 4.43174
rclavicle 2.53202e-014 -3.97569e-015
rhumerus -20.7654 9.53766 -93.0624
rradius 38.2436
rwrist 33.4616
rhand -33.7501 -17.3164
rfingers 7.12502
rthumb -6.93832 -47.1827
lclavicle 2.53202e-014 -3.97569e-015
lhumerus -42.337 -18.456 93.0556
lradius 23.5957
lwrist -10.1514
lhand -38.0878 9.3654
lfingers 7.12502
lthumb -11.124 39.0506
rfemur 14.8335 -15.6801 24.1909
rtibia 26.6202
rfoot -22.377 -0.54761
rtoes -11.7291
lfemur -19.1554 4.65314 -4.81151
ltibia 50.4513
lfoot -24.0823 -9.02652
ltoes -11.5987
134
root 2.62192 16.7393 -11.6529 -11.3103 5.9673 -5.36989
lowerback 7.46266 3.23197 3.52175
upperback 4.51386 4.5286 -0.0492202
thorax 0.772427 2.34857 -2.3078
lowerneck -12.3407 -9.65077 -9.47546
upperneck 21.0074 -14.7991 13.8787
head 10.563 -6.21493 4.43618
rclavicle 5.18331e-014 1.59028e-015
rhumerus -20.6415 10.2079 -93.4889
rradius 38.2502
rwrist 33.0352
rhand -33.5833 -17.3028
rfingers 7.12502
rthumb -6.7773 -47.1743
lclavicle 5.18331e-014 1.59028e-015
lhumerus -43.2778 -18.8446 92.801
lradius 23.7926
lwrist -10.0788
lhand -37.5216 9.30535
lfingers 7.12502
lthumb -10.5778 39.0192
rfemur 15.861 -15.3762 23.9593
rtibia 24.7642
rfoot -21.117 -0.264782
rtoes -12.056
lfemur -19.6816 4.21512 -5.60076
ltibia 48.4292
lfoot -24.3665 -9.43579
ltoes -11.6818
135
root 2.62706 16.8041 -11.5128 -11.0984 5.79254 -5.28081
lowerback 7.55742 3.39359 3.71502
upperback 4.2851 4.76153 -0.289553
thorax 0.536485 2.46394 -2.69077
lowerneck -12.313 -9.75345 -10.0536
upperneck 21.1411 -14.9499 14.2813
head 10.7139 -6.28597 4.65406
rclavicle 2.72832e-014 -1.03368e-014
rhumerus -20.639 10.8719 -93.7788
rradius 37.9823
rwrist 33.4331
rhand -33.7283 -17.3027
rfingers 7.12502
rthumb -6.91731 -47.1697
lclavicle 2.72832e-014 -1.03368e-014
lhumerus -43.8995 -18.2132 92.4321
lradius 23.5727
lwrist -10.5035
lhand -37.257 8.96346
lfingers 7.12502
lthumb -10.3226 38.6901
rfemur 16.9484 -15.0691 23.812
rtibia 22.9075
rfoot -19.7505 0.0907423
rtoes -12.8578
lfemur -20.0759 3.6491 -6.15342
ltibia 46.5472
lfoot -24.5688 -9.89406
ltoes -11.7135
